<?xml version="1.0" encoding="UTF-8" standalone="no"?>
<svg width="25px" height="25px" viewBox="0 0 25 25" version="1.1" xmlns="http://www.w3.org/2000/svg" xmlns:xlink="http://www.w3.org/1999/xlink" xmlns:sketch="http://www.bohemiancoding.com/sketch/ns">
    <!-- Generator: Sketch 3.4.2 (15855) - http://www.bohemiancoding.com/sketch -->
    <title>share_fb</title>
    <desc>Created with Sketch.</desc>
    <defs></defs>
    <g id="Welcome" stroke="none" stroke-width="1" fill="none" fill-rule="evenodd" sketch:type="MSPage">
        <g id="06a---Blog" sketch:type="MSArtboardGroup" transform="translate(-451.000000, -1466.000000)" fill="#9BD2D8">
            <g id="Group-Copy-2" sketch:type="MSLayerGroup" transform="translate(112.000000, 1192.332656)">
                <path d="M351.5,298 C358.127417,298 363.5,292.627417 363.5,286 C363.5,279.372583 358.127417,274 351.5,274 C344.872583,274 339.5,279.372583 339.5,286 C339.5,292.627417 344.872583,298 351.5,298 Z M352.94384,278.25376 C352.43984,278.25376 351.956,278.31424 351.39152,278.536 C350.2424,278.99968 349.65776,280.08832 349.65776,281.78176 L349.65776,283.43488 L348.04496,283.43488 L348.04496,286.1968 L349.65776,286.1968 L349.65776,294.16 L352.94384,294.16 L352.94384,286.1968 L355.1816,286.1968 L355.484,283.43488 L352.94384,283.43488 L352.94384,282.18496 C352.94384,281.80192 352.98416,281.51968 353.08496,281.3584 C353.22608,281.11648 353.50832,280.99552 353.95184,280.99552 L355.44368,280.99552 L355.44368,278.25376 L352.94384,278.25376 Z" id="share_fb" sketch:type="MSShapeGroup"></path>
            </g>
        </g>
    </g>
</svg>