<?xml version="1.0" encoding="UTF-8" standalone="no"?>
<svg width="24px" height="25px" viewBox="0 0 24 25" version="1.1" xmlns="http://www.w3.org/2000/svg" xmlns:xlink="http://www.w3.org/1999/xlink" xmlns:sketch="http://www.bohemiancoding.com/sketch/ns">
    <!-- Generator: Sketch 3.4.2 (15855) - http://www.bohemiancoding.com/sketch -->
    <title>share_insta</title>
    <desc>Created with Sketch.</desc>
    <defs></defs>
    <g id="Welcome" stroke="none" stroke-width="1" fill="none" fill-rule="evenodd" sketch:type="MSPage">
        <g id="06a---Blog" sketch:type="MSArtboardGroup" transform="translate(-484.000000, -1466.000000)" fill="#9BD2D8">
            <g id="Group-Copy-2" sketch:type="MSLayerGroup" transform="translate(112.000000, 1192.332656)">
                <path d="M378.24,278.92105 C377.401229,279.214891 376.8,280.011917 376.8,280.96 L376.8,283.12 L380.780007,283.12 C381.571028,282.236201 382.72056,281.68 384,281.68 C385.27944,281.68 386.428972,282.236201 387.219993,283.12 L391.2,283.12 L391.2,280.96 C391.2,279.767065 390.232815,278.8 389.044175,278.8 L378.955825,278.8 C378.876133,278.8 378.797451,278.804295 378.72,278.812671 L378.72,281.68 L378.24,281.68 L378.24,278.92105 Z M387.870951,284.08 L391.2,284.08 L391.2,288.64 C391.2,291.153294 389.160097,293.2 386.64375,293.2 L381.35625,293.2 C378.832627,293.2 376.8,291.158418 376.8,288.64 L376.8,284.08 L380.129049,284.08 C379.841619,284.65838 379.68,285.310316 379.68,286 C379.68,288.38587 381.61413,290.32 384,290.32 C386.38587,290.32 388.32,288.38587 388.32,286 C388.32,285.310316 388.158381,284.65838 387.870951,284.08 Z M384,298 C390.627417,298 396,292.627417 396,286 C396,279.372583 390.627417,274 384,274 C377.372583,274 372,279.372583 372,286 C372,292.627417 377.372583,298 384,298 Z M380.16,278.8 L380.16,281.68 L380.64,281.68 L380.64,278.8 L380.16,278.8 Z M379.2,278.8 L379.2,281.68 L379.68,281.68 L379.68,278.8 L379.2,278.8 Z M388.36391,279.76 C387.809466,279.76 387.36,280.200197 387.36,280.76391 L387.36,281.15609 C387.36,281.710534 387.800197,282.16 388.36391,282.16 L388.75609,282.16 C389.310534,282.16 389.76,281.719803 389.76,281.15609 L389.76,280.76391 C389.76,280.209466 389.319803,279.76 388.75609,279.76 L388.36391,279.76 Z M384,289.36 C385.855677,289.36 387.36,287.855677 387.36,286 C387.36,284.144323 385.855677,282.64 384,282.64 C382.144323,282.64 380.64,284.144323 380.64,286 C380.64,287.855677 382.144323,289.36 384,289.36 Z" id="share_insta" sketch:type="MSShapeGroup"></path>
            </g>
        </g>
    </g>
</svg>