<?xml version="1.0" encoding="UTF-8" standalone="no"?>
<svg width="24px" height="25px" viewBox="0 0 24 25" version="1.1" xmlns="http://www.w3.org/2000/svg" xmlns:xlink="http://www.w3.org/1999/xlink" xmlns:sketch="http://www.bohemiancoding.com/sketch/ns">
    <!-- Generator: Sketch 3.4.2 (15855) - http://www.bohemiancoding.com/sketch -->
    <title>share_twitter</title>
    <desc>Created with Sketch.</desc>
    <defs></defs>
    <g id="Welcome" stroke="none" stroke-width="1" fill="none" fill-rule="evenodd" sketch:type="MSPage">
        <g id="06a---Blog" sketch:type="MSArtboardGroup" transform="translate(-516.000000, -1466.000000)" fill="#9BD2D8">
            <g id="Group-Copy-2" sketch:type="MSLayerGroup" transform="translate(112.000000, 1192.332656)">
                <path d="M416,298 C422.627417,298 428,292.627417 428,286 C428,279.372583 422.627417,274 416,274 C409.372583,274 404,279.372583 404,286 C404,292.627417 409.372583,298 416,298 Z M412.472539,282.926515 C414.779738,284.091315 416.729588,284.024115 416.729588,284.024115 C416.729588,284.024115 415.990388,281.448115 418.275188,280.305716 C420.559987,279.163316 422.132258,281.089365 422.132258,281.089365 C422.132258,281.089365 422.530736,280.979979 422.827642,280.870592 C423.124548,280.761206 423.55428,280.565873 423.55428,280.565873 L422.850229,281.822565 L423.934361,281.707647 C423.934361,281.707647 423.800739,281.903019 423.366851,282.300953 C422.932963,282.698887 422.754137,282.904465 422.754137,282.904465 C422.754137,282.904465 422.909133,286.005193 421.275737,288.392464 C419.642341,290.779735 417.531897,292.212513 414.466138,292.514063 C411.40038,292.815613 409.403739,291.573264 409.403739,291.573264 C409.403739,291.573264 410.744547,291.496743 411.598939,291.170064 C412.453331,290.843384 413.682139,289.982864 413.682139,289.982864 C413.682139,289.982864 411.934939,289.445264 411.307739,288.840464 C410.680539,288.235664 410.523739,287.877264 410.523739,287.877264 L412.248539,287.854864 C412.248539,287.854864 410.434139,286.891664 409.918939,286.130065 C409.403739,285.368465 409.336539,284.629265 409.336539,284.629265 L410.662581,285.164745 C410.662581,285.164745 409.560539,283.666065 409.403739,282.501265 C409.246939,281.336465 409.605339,280.709266 409.605339,280.709266 C409.605339,280.709266 410.165339,281.761715 412.472539,282.926515 Z" id="share_twitter" sketch:type="MSShapeGroup"></path>
            </g>
        </g>
    </g>
</svg>